<?xml version="1.0" encoding="utf-8"?>
<!-- Generator: Adobe Illustrator 21.1.0, SVG Export Plug-In . SVG Version: 6.00 Build 0)  -->
<svg version="1.1" id="레이어_1" xmlns="http://www.w3.org/2000/svg" xmlns:xlink="http://www.w3.org/1999/xlink" x="0px"
	 y="0px" viewBox="0 0 351.2 378.8" style="enable-background:new 0 0 351.2 378.8;" xml:space="preserve">
<style type="text/css">
	.st0{fill:#FFFFFF;}
	.st1{fill:#CE0202;}
	.st2{fill:#E0B500;}
</style>
<g id="레이어_2">
</g>
<path class="st0" d="M350.2,182.6c-4.2-39.5-20.9-74.7-45.8-101.7L328.5,37c2.2-3.5-8.6-14.4-24.1-24.3c-15.4-9.9-29.8-15.1-32-11.6
	l-27.3,37.4c-26.9-11.7-57-16.8-88.1-13.4C60.5,35.5-9.3,122.9,1,220.2s96.8,167.9,193.2,157.5C290.7,367.3,360.5,279.9,350.2,182.6
	z"/>
<g>
	
		<ellipse transform="matrix(0.9943 -0.1063 0.1063 0.9943 -19.8351 19.6597)" class="st1" cx="174.5" cy="195.9" rx="164.7" ry="164.7"/>
	<path class="st0" d="M59.8,170.3c-1.6,0-3.2-0.2-4.8-0.6c-10.2-2.7-16.3-13.1-13.6-23.3c19.6-74.6,93-90.6,96.2-91.3l7.7,37.3h0.1
		c-0.1,0-14.1,3.1-29.5,12.9c-19.4,12.4-32.1,29.4-37.7,50.7C75.9,164.6,68.2,170.3,59.8,170.3z"/>
	<path class="st2" d="M318,43.2c2.1-3.3-8-13.4-22.6-22.6c-14.5-9.2-28-14-30.1-10.8L232,55.1c-2.5,4,8.6,15.6,24.8,25.8
		c16.2,10.3,31.4,15.4,33.9,11.4L318,43.2z"/>
	<path class="st0" d="M287.5,35.5c-0.6,0-1.1-0.1-1.7-0.4c-9.2-5.3-16.2-12.6-16.5-12.9c-1.3-1.3-1.2-3.4,0.1-4.7
		c1.3-1.3,3.4-1.2,4.7,0.1l0,0c0.1,0.1,6.7,6.9,15,11.7c1.6,0.9,2.1,3,1.2,4.6C289.8,34.9,288.7,35.5,287.5,35.5z"/>
	<circle class="st0" cx="53" cy="212.6" r="17.6"/>
	
		<ellipse transform="matrix(0.9953 -9.666662e-02 9.666662e-02 0.9953 -6.4049 14.1949)" class="st0" cx="143.3" cy="73.2" rx="19.4" ry="19.4"/>
</g>
</svg>
